<?xml version="1.0" encoding="utf-8"?>
<!-- Generator: Adobe Illustrator 25.4.1, SVG Export Plug-In . SVG Version: 6.00 Build 0)  -->
<svg version="1.1" id="Layer_1" xmlns="http://www.w3.org/2000/svg" xmlns:xlink="http://www.w3.org/1999/xlink" x="0px" y="0px"
	 viewBox="0 0 250 70" style="enable-background:new 0 0 250 70;" xml:space="preserve">
<style type="text/css">
	.st0{fill:#010101;}
	.st1{clip-path:url(#SVGID_00000036228082653341630890000003618043250758526113_);}
	.st2{fill:#56AEE1;}
	.st3{clip-path:url(#SVGID_00000141424185243292244870000005134994471166118784_);}
	.st4{fill:#2A3886;}
	.st5{clip-path:url(#SVGID_00000000933816312392020580000013342991990628846481_);}
	.st6{fill:#296392;}
	.st7{fill:#F1AE55;}
	.st8{fill:#5550A0;}
	.st9{fill:#EF4123;}
	.st10{fill:#61B3E4;}
	.st11{fill:#F04F28;}
	.st12{stroke:#000000;stroke-width:0.15;stroke-miterlimit:10;}
</style>
<g>
	<g>
		<g transform="translate(84.552517, 205.055962)">
			<g>
				<path class="st0" d="M-25.28-188.85c0.61-0.61,1.34-0.92,2.19-0.92c0.85,0,1.58,0.31,2.19,0.92c0.61,0.61,0.92,1.34,0.92,2.19
					c0,0.84-0.31,1.57-0.92,2.18c-0.61,0.61-1.34,0.92-2.19,0.92c-0.85,0-1.58-0.31-2.19-0.92c-0.61-0.61-0.92-1.34-0.92-2.18
					C-26.2-187.51-25.89-188.24-25.28-188.85z M-25.77-180.38v15.19h5.24v-15.19H-25.77z"/>
			</g>
		</g>
	</g>
	<g>
		<g transform="translate(93.677179, 205.055962)">
			<g>
				<path class="st0" d="M-28.74-165.19v-15.19h5.24v1.6h0.05c1.36-1.36,2.81-2.05,4.35-2.05c0.75,0,1.5,0.1,2.24,0.3
					c0.74,0.2,1.46,0.5,2.14,0.92c0.68,0.42,1.23,1,1.66,1.76c0.42,0.76,0.63,1.64,0.63,2.66v10h-5.24v-8.59
					c0-0.79-0.25-1.48-0.76-2.07c-0.5-0.6-1.15-0.9-1.96-0.9c-0.8,0-1.51,0.31-2.15,0.93c-0.64,0.61-0.96,1.29-0.96,2.03v8.59
					H-28.74z"/>
			</g>
		</g>
	</g>
	<g>
		<g transform="translate(118.55272, 205.055962)">
			<g>
				<path class="st0" d="M-36.83-165.19v-15.19h5.24v1.6h0.05c1.36-1.36,2.81-2.05,4.35-2.05c1.11,0,2.15,0.23,3.11,0.69
					c0.97,0.45,1.7,1.15,2.19,2.1c1.54-1.86,3.22-2.78,5.04-2.78c1.62,0,3,0.45,4.16,1.36c1.16,0.91,1.75,2.33,1.75,4.27v10h-5.24
					v-8.59c0-0.81-0.22-1.48-0.66-2.02c-0.44-0.54-1.11-0.81-2-0.81c-0.77,0-1.35,0.23-1.76,0.7c-0.4,0.46-0.62,1.02-0.66,1.67v9.07
					h-5.24v-8.59c0-0.81-0.23-1.48-0.67-2.02c-0.44-0.54-1.11-0.81-1.99-0.81c-0.81,0-1.42,0.25-1.82,0.76
					c-0.4,0.5-0.6,1.09-0.6,1.78v8.89H-36.83z"/>
			</g>
		</g>
	</g>
	<g>
		<g transform="translate(157.64354, 205.055962)">
			<g>
				<path class="st0" d="M-38.04-180.38H-32l-11.93,22.89h-6.04l5.24-10.07l-7.19-12.82h6.04l4.24,7.79L-38.04-180.38z"/>
			</g>
		</g>
	</g>
	<g>
		<g transform="translate(181.2906, 205.055962)">
			<g>
				<path class="st0" d="M-56.21-167.07c-1.42-1.55-2.13-3.45-2.13-5.7c0-2.25,0.71-4.15,2.13-5.71c1.42-1.56,3.23-2.34,5.42-2.34
					c2.01,0,3.67,0.63,4.98,1.9v-1.45h5.24v15.19h-5.19v-1.72h-0.05c-1.31,1.44-2.97,2.16-4.98,2.16
					C-52.98-164.75-54.79-165.52-56.21-167.07z M-51.75-175.34c-0.68,0.67-1.02,1.53-1.02,2.57c0,1.05,0.32,1.9,0.97,2.56
					c0.65,0.66,1.51,0.99,2.58,0.99c1.03,0,1.87-0.33,2.53-1c0.66-0.67,0.99-1.52,0.99-2.55c0-1.05-0.34-1.9-1.02-2.57
					c-0.68-0.67-1.52-1.01-2.5-1.01C-50.22-176.36-51.07-176.02-51.75-175.34z"/>
			</g>
		</g>
	</g>
	<g>
		<g transform="translate(207.131382, 205.055962)">
			<g>
				<path class="st0" d="M-57.57-176.54c-0.99,0-1.83,0.37-2.54,1.1c-0.71,0.73-1.06,1.61-1.06,2.64c0,1.05,0.35,1.94,1.06,2.67
					c0.71,0.73,1.56,1.1,2.54,1.1c0.48,0,0.93-0.06,1.35-0.18c0.43-0.12,0.74-0.24,0.94-0.36l0.26-0.18l1.78,3.65
					c-0.14,0.1-0.33,0.22-0.58,0.37c-0.25,0.15-0.81,0.35-1.69,0.6c-0.88,0.26-1.82,0.39-2.84,0.39c-2.23,0-4.19-0.78-5.87-2.35
					c-1.69-1.57-2.53-3.45-2.53-5.64c0-2.21,0.84-4.11,2.53-5.7c1.69-1.59,3.64-2.38,5.87-2.38c1.01,0,1.94,0.12,2.78,0.36
					c0.85,0.23,1.45,0.47,1.81,0.71l0.51,0.36l-1.78,3.58C-55.67-176.3-56.52-176.54-57.57-176.54z"/>
			</g>
		</g>
	</g>
	<g>
		<g transform="translate(224.548293, 205.055962)">
			<g>
				<path class="st0" d="M-70.28-167.07c-1.42-1.55-2.13-3.45-2.13-5.7c0-2.25,0.71-4.15,2.13-5.71c1.42-1.56,3.23-2.34,5.42-2.34
					c2.01,0,3.67,0.63,4.98,1.9v-1.45h5.24v15.19h-5.19v-1.72h-0.05c-1.31,1.44-2.97,2.16-4.98,2.16
					C-67.05-164.75-68.86-165.52-70.28-167.07z M-65.82-175.34c-0.68,0.67-1.02,1.53-1.02,2.57c0,1.05,0.32,1.9,0.97,2.56
					c0.65,0.66,1.51,0.99,2.58,0.99c1.03,0,1.87-0.33,2.53-1c0.66-0.67,0.99-1.52,0.99-2.55c0-1.05-0.34-1.9-1.02-2.57
					c-0.68-0.67-1.52-1.01-2.5-1.01C-64.3-176.36-65.14-176.02-65.82-175.34z"/>
			</g>
		</g>
	</g>
	<g>
		<g transform="translate(250.389065, 205.055962)">
			<g>
				<path class="st0" d="M-78.68-167.07c-1.42-1.55-2.13-3.45-2.13-5.7c0-2.25,0.71-4.15,2.13-5.71c1.42-1.56,3.23-2.34,5.42-2.34
					c2.01,0,3.67,0.63,4.98,1.9v-11.73h5.24v25.47h-5.19v-1.72h-0.05c-1.31,1.44-2.97,2.16-4.98,2.16
					C-75.46-164.75-77.27-165.52-78.68-167.07z M-74.22-175.34c-0.68,0.67-1.02,1.53-1.02,2.57c0,1.05,0.32,1.9,0.97,2.56
					c0.65,0.66,1.51,0.99,2.58,0.99c1.03,0,1.87-0.33,2.53-1c0.66-0.67,0.99-1.52,0.99-2.55c0-1.05-0.34-1.9-1.02-2.57
					c-0.68-0.67-1.52-1.01-2.5-1.01C-72.7-176.36-73.54-176.02-74.22-175.34z"/>
			</g>
		</g>
	</g>
	<g>
		<g transform="translate(276.229838, 205.055962)">
			<g>
				<path class="st0" d="M-72.76-172.07h-11.02c0,1.07,0.34,1.86,1.03,2.37c0.7,0.51,1.45,0.77,2.26,0.77
					c0.85,0,1.52-0.11,2.01-0.34c0.5-0.23,1.06-0.68,1.69-1.35l3.8,1.9c-1.58,2.64-4.21,3.96-7.88,3.96c-2.29,0-4.26-0.78-5.89-2.35
					c-1.64-1.57-2.46-3.46-2.46-5.67c0-2.21,0.82-4.11,2.46-5.68c1.64-1.58,3.6-2.37,5.89-2.37c2.4,0,4.36,0.7,5.87,2.09
					c1.51,1.39,2.27,3.38,2.27,5.97C-72.73-172.42-72.74-172.18-72.76-172.07z M-83.62-174.97h5.77c-0.12-0.79-0.43-1.39-0.94-1.81
					c-0.5-0.43-1.14-0.64-1.93-0.64c-0.87,0-1.57,0.23-2.08,0.69C-83.31-176.29-83.59-175.7-83.62-174.97z"/>
			</g>
		</g>
	</g>
	<g>
		<g transform="translate(298.560671, 205.055962)">
			<g>
				<path class="st0" d="M-95.39-165.19v-15.19h5.24v1.6h0.05c1.36-1.36,2.81-2.05,4.35-2.05c1.11,0,2.15,0.23,3.11,0.69
					c0.97,0.45,1.7,1.15,2.19,2.1c1.54-1.86,3.22-2.78,5.04-2.78c1.62,0,3,0.45,4.16,1.36c1.16,0.91,1.75,2.33,1.75,4.27v10h-5.24
					v-8.59c0-0.81-0.22-1.48-0.66-2.02c-0.44-0.54-1.11-0.81-2-0.81c-0.77,0-1.35,0.23-1.76,0.7c-0.4,0.46-0.62,1.02-0.66,1.67v9.07
					h-5.24v-8.59c0-0.81-0.23-1.48-0.67-2.02c-0.44-0.54-1.11-0.81-1.99-0.81c-0.81,0-1.42,0.25-1.82,0.76
					c-0.4,0.5-0.6,1.09-0.6,1.78v8.89H-95.39z"/>
			</g>
		</g>
	</g>
	<g>
		<g transform="translate(337.651495, 205.055962)">
			<g>
				<path class="st0" d="M-96.59-180.38h6.04l-11.93,22.89h-6.04l5.24-10.07l-7.19-12.82h6.04l4.24,7.79L-96.59-180.38z"/>
			</g>
		</g>
	</g>
	<g>
		<defs>
			<rect id="SVGID_1_" x="28.96" y="24.31" width="25.05" height="36.25"/>
		</defs>
		<clipPath id="SVGID_00000108293223994453056590000011818461671871404686_">
			<use xlink:href="#SVGID_1_"  style="overflow:visible;"/>
		</clipPath>
		<g style="clip-path:url(#SVGID_00000108293223994453056590000011818461671871404686_);">
			<path class="st2" d="M29.75,60.54c-0.2,0-0.37-0.16-0.38-0.36c-0.01-0.21,0.15-0.39,0.36-0.4c13.19-0.67,23.53-11.55,23.53-24.77
				c0-3.47-0.71-6.83-2.1-9.99c-0.08-0.19,0-0.41,0.19-0.5c0.19-0.08,0.41,0,0.5,0.19c1.44,3.26,2.17,6.72,2.17,10.29
				c0,6.59-2.51,12.85-7.07,17.62c-4.54,4.76-10.64,7.57-17.18,7.9C29.76,60.54,29.75,60.54,29.75,60.54"/>
		</g>
	</g>
	<g>
		<defs>
			<rect id="SVGID_00000140703094862658529870000009701372242485820344_" x="2.9" y="16.89" width="11.22" height="39.13"/>
		</defs>
		<clipPath id="SVGID_00000125570981863914260810000005730085808365918141_">
			<use xlink:href="#SVGID_00000140703094862658529870000009701372242485820344_"  style="overflow:visible;"/>
		</clipPath>
		<g style="clip-path:url(#SVGID_00000125570981863914260810000005730085808365918141_);">
			<path class="st4" d="M13.65,55.75c-0.08,0-0.16-0.02-0.22-0.07c-3.19-2.33-5.84-5.4-7.66-8.9C3.89,43.18,2.9,39.11,2.9,35.02
				c0-6.74,2.61-13.1,7.35-17.92c0.15-0.15,0.38-0.15,0.54,0c0.15,0.14,0.15,0.38,0,0.53c-4.6,4.68-7.14,10.85-7.14,17.39
				c0,7.89,3.82,15.39,10.22,20.05c0.17,0.12,0.21,0.36,0.08,0.53C13.88,55.7,13.77,55.75,13.65,55.75"/>
		</g>
	</g>
	<g>
		<defs>
			<rect id="SVGID_00000129197396104900585930000014206483772337425026_" x="16.81" y="9.44" width="26.31" height="5.42"/>
		</defs>
		<clipPath id="SVGID_00000140010480082734736240000016149601459546943647_">
			<use xlink:href="#SVGID_00000129197396104900585930000014206483772337425026_"  style="overflow:visible;"/>
		</clipPath>
		<g style="clip-path:url(#SVGID_00000140010480082734736240000016149601459546943647_);">
			<path class="st4" d="M42.59,14.57c-0.07,0-0.15-0.02-0.21-0.07c-4.12-2.8-8.93-4.29-13.92-4.29c-3.76,0-7.37,0.82-10.74,2.45
				c-0.19,0.09-0.41,0.01-0.5-0.18c-0.09-0.19-0.01-0.41,0.18-0.5c3.47-1.68,7.2-2.52,11.07-2.52c5.14,0,10.11,1.53,14.35,4.42
				c0.17,0.12,0.22,0.35,0.1,0.52C42.83,14.51,42.71,14.57,42.59,14.57"/>
		</g>
	</g>
	<path class="st6" d="M42.17,54.31c-0.12,0-0.23-0.06-0.31-0.16c-0.12-0.17-0.08-0.41,0.08-0.53c3.14-2.29,5.68-5.35,7.33-8.85
		c0.09-0.19,0.32-0.27,0.5-0.18c0.19,0.09,0.27,0.31,0.18,0.5c-1.7,3.62-4.32,6.78-7.57,9.14C42.32,54.28,42.24,54.31,42.17,54.31"
		/>
	<path class="st7" d="M28.45,58.76c-5.11,0-9.99-1.61-14.1-4.65c-1.98-1.46-3.71-3.22-5.15-5.21c-1.46-2.02-2.59-4.24-3.35-6.59
		c-0.06-0.2,0.04-0.41,0.24-0.48c0.2-0.06,0.41,0.04,0.48,0.25c3.08,9.53,11.87,15.93,21.88,15.93c2.05,0,4.08-0.27,6.04-0.8
		c0.2-0.06,0.41,0.06,0.46,0.27c0.06,0.2-0.06,0.41-0.27,0.46C32.67,58.48,30.57,58.76,28.45,58.76"/>
	<path class="st7" d="M51.82,34.91c-0.21,0-0.37-0.16-0.38-0.37c-0.25-12.42-10.56-22.52-22.99-22.52c-7.46,0-14.49,3.66-18.8,9.78
		c-0.12,0.17-0.36,0.21-0.53,0.09c-0.17-0.12-0.21-0.36-0.09-0.52c2.15-3.05,5.03-5.59,8.32-7.34c3.4-1.81,7.24-2.76,11.1-2.76
		c6.25,0,12.15,2.41,16.62,6.8c4.46,4.38,7,10.22,7.12,16.45C52.2,34.74,52.03,34.91,51.82,34.91
		C51.82,34.91,51.82,34.91,51.82,34.91"/>
	<path class="st7" d="M22.35,56.07c-0.04,0-0.07-0.01-0.11-0.02c-4.44-1.32-8.44-4.09-11.26-7.8c-2.92-3.84-4.46-8.42-4.46-13.24
		c0-8.05,4.41-15.44,11.52-19.3c0.18-0.1,0.41-0.03,0.51,0.15c0.1,0.18,0.03,0.41-0.15,0.51C11.54,20.1,7.28,27.24,7.28,35.02
		c0,9.32,6.24,17.67,15.18,20.31c0.2,0.06,0.31,0.27,0.26,0.47C22.66,55.96,22.51,56.07,22.35,56.07"/>
	<path class="st8" d="M28.45,56.95c-0.08,0-0.16,0-0.24,0c-0.21,0-0.37-0.17-0.37-0.38c0-0.21,0.17-0.37,0.38-0.37c0,0,0,0,0.01,0
		c0.07,0,0.15,0,0.23,0c11.68,0,21.18-9.5,21.18-21.18c0-11.68-9.5-21.17-21.18-21.17c-0.17,0-0.35,0-0.52,0.01
		c-0.21,0-0.38-0.16-0.39-0.37c-0.01-0.21,0.16-0.38,0.37-0.38c0.18-0.01,0.36-0.01,0.54-0.01c12.1,0,21.93,9.84,21.93,21.93
		C50.39,47.11,40.55,56.95,28.45,56.95"/>
	<path class="st9" d="M28.45,55.14c-11.09,0-20.12-9.02-20.12-20.12c0-11.09,9.02-20.12,20.12-20.12c1.53,0,3.06,0.17,4.54,0.52
		c0.2,0.04,0.33,0.25,0.28,0.45c-0.04,0.2-0.25,0.33-0.45,0.28c-1.42-0.33-2.89-0.5-4.37-0.5c-10.68,0-19.36,8.69-19.36,19.36
		c0,10.68,8.69,19.37,19.36,19.37c2.04,0,4.04-0.32,5.96-0.94c0.2-0.06,0.41,0.04,0.48,0.25c0.06,0.2-0.04,0.41-0.25,0.47
		C32.65,54.81,30.57,55.14,28.45,55.14"/>
	<path class="st8" d="M41.73,50c-0.1,0-0.21-0.04-0.28-0.12c-0.14-0.15-0.13-0.39,0.03-0.53c4.03-3.67,6.35-8.89,6.35-14.32
		c0-6.37-3.15-12.34-8.42-15.96c-0.17-0.12-0.21-0.35-0.09-0.52c0.12-0.17,0.35-0.22,0.52-0.1c5.47,3.77,8.74,9.97,8.74,16.58
		c0,2.88-0.6,5.66-1.78,8.27c-1.14,2.52-2.76,4.74-4.82,6.61C41.91,49.97,41.82,50,41.73,50"/>
	<path class="st9" d="M28.45,53.32c-6.23,0-11.98-3.13-15.38-8.38c-0.11-0.18-0.06-0.41,0.11-0.52c0.18-0.11,0.41-0.06,0.52,0.11
		c3.26,5.03,8.77,8.04,14.74,8.04c9.68,0,17.55-7.87,17.55-17.55c0-0.77-0.05-1.54-0.15-2.3c-0.03-0.21,0.12-0.4,0.32-0.42
		c0.21-0.03,0.4,0.12,0.42,0.33c0.1,0.79,0.16,1.6,0.16,2.4C46.76,45.11,38.55,53.32,28.45,53.32"/>
	<path class="st7" d="M10.54,36.25c-0.2,0-0.37-0.16-0.38-0.36c-0.01-0.29-0.02-0.58-0.02-0.87c0-10.09,8.21-18.31,18.31-18.31
		c7.26,0,13.84,4.3,16.77,10.96c0.08,0.19,0,0.41-0.2,0.5c-0.19,0.08-0.41,0-0.5-0.2c-2.81-6.38-9.12-10.5-16.07-10.5
		c-9.68,0-17.55,7.87-17.55,17.55c0,0.28,0.01,0.56,0.02,0.84c0.01,0.21-0.15,0.38-0.36,0.4C10.56,36.25,10.55,36.25,10.54,36.25"/>
	<path class="st10" d="M28.45,51.51c-9.1,0-16.49-7.4-16.49-16.5c0-2.64,0.61-5.16,1.81-7.5c0.09-0.19,0.32-0.26,0.51-0.16
		c0.18,0.09,0.26,0.32,0.16,0.51c-1.14,2.23-1.72,4.64-1.72,7.15c0,8.68,7.06,15.74,15.74,15.74c4.72,0,9.16-2.1,12.17-5.76
		c0.13-0.16,0.37-0.18,0.53-0.05c0.16,0.13,0.18,0.37,0.05,0.53C38.05,49.31,33.4,51.51,28.45,51.51"/>
	<path class="st2" d="M43.79,40.37c-0.04,0-0.08-0.01-0.12-0.02c-0.2-0.06-0.31-0.28-0.24-0.47c0.51-1.57,0.77-3.2,0.77-4.87
		c0-8.68-7.06-15.74-15.74-15.74c-2.56,0-5.1,0.63-7.35,1.82c-0.18,0.1-0.41,0.03-0.51-0.16c-0.1-0.18-0.03-0.41,0.16-0.51
		c2.36-1.25,5.02-1.91,7.7-1.91c9.1,0,16.5,7.4,16.5,16.49c0,1.74-0.27,3.46-0.81,5.1C44.09,40.27,43.94,40.37,43.79,40.37"/>
	<path class="st8" d="M28.45,49.7c-1.14,0-2.28-0.13-3.38-0.39c-0.2-0.05-0.33-0.25-0.28-0.45c0.05-0.2,0.25-0.33,0.46-0.28
		c1.04,0.25,2.12,0.37,3.2,0.37c7.68,0,13.93-6.25,13.93-13.93c0-7.68-6.25-13.93-13.93-13.93c-7.68,0-13.93,6.25-13.93,13.93
		c0,4.07,1.78,7.93,4.88,10.58c0.16,0.14,0.18,0.37,0.04,0.53c-0.14,0.16-0.37,0.18-0.53,0.04c-3.27-2.8-5.14-6.87-5.14-11.16
		c0-8.09,6.59-14.68,14.68-14.68c8.1,0,14.68,6.59,14.68,14.68C43.14,43.11,36.55,49.7,28.45,49.7"/>
	<path class="st7" d="M28.45,47.89c-2.61,0-5.12-0.78-7.27-2.26c-2.1-1.44-3.71-3.44-4.66-5.79c-0.08-0.19,0.02-0.41,0.21-0.49
		c0.2-0.08,0.41,0.01,0.49,0.21c1.87,4.6,6.28,7.57,11.23,7.57c6.68,0,12.12-5.43,12.12-12.12c0-4.57-2.54-8.7-6.61-10.79
		c-0.19-0.1-0.26-0.32-0.16-0.51c0.09-0.19,0.32-0.26,0.51-0.16c2.08,1.06,3.83,2.68,5.08,4.66c1.28,2.04,1.95,4.39,1.95,6.81
		C41.33,42.11,35.55,47.89,28.45,47.89"/>
	<path class="st10" d="M16.38,32.18c-0.03,0-0.07-0.01-0.1-0.01c-0.2-0.06-0.32-0.26-0.27-0.46c0.7-2.61,2.25-5,4.37-6.71
		c2.18-1.76,4.82-2.74,7.61-2.84c0.21-0.01,0.38,0.16,0.39,0.36c0.01,0.21-0.16,0.38-0.36,0.39c-5.28,0.18-9.92,3.88-11.28,8.99
		C16.7,32.07,16.55,32.18,16.38,32.18"/>
	<path class="st11" d="M28.45,46.08c-6.1,0-11.06-4.96-11.06-11.06c0-6.1,4.96-11.06,11.06-11.06c6.1,0,11.06,4.96,11.06,11.06
		c0,0.85-0.1,1.7-0.29,2.52c-0.05,0.2-0.25,0.33-0.45,0.28c-0.2-0.05-0.33-0.25-0.28-0.45c0.18-0.76,0.27-1.55,0.27-2.35
		c0-5.68-4.62-10.3-10.31-10.3c-5.68,0-10.3,4.62-10.3,10.3c0,5.68,4.62,10.31,10.3,10.31c1.88,0,3.71-0.51,5.31-1.47
		c0.18-0.11,0.41-0.05,0.52,0.13c0.11,0.18,0.05,0.41-0.13,0.52C32.44,45.53,30.47,46.08,28.45,46.08"/>
	<g>
		<path class="st12" d="M62.15,50.89h-2.68v1.5h2.4v0.45h-2.4v1.54h2.71v0.45h-3.2v-4.39h3.17V50.89z"/>
		<path class="st12" d="M69.23,51.91c0.07-0.08,0.16-0.15,0.25-0.21c0.09-0.06,0.2-0.1,0.31-0.14c0.11-0.03,0.24-0.05,0.39-0.05
			c0.38,0,0.67,0.12,0.88,0.35c0.21,0.23,0.32,0.55,0.32,0.96v2.01H70.9v-1.89c0-0.31-0.07-0.56-0.22-0.72s-0.35-0.25-0.62-0.25
			c-0.12,0-0.24,0.02-0.34,0.07s-0.2,0.11-0.29,0.19c-0.08,0.09-0.15,0.19-0.19,0.32c-0.05,0.12-0.07,0.27-0.07,0.43v1.87h-0.48
			v-1.91c0-0.31-0.07-0.54-0.22-0.71s-0.35-0.25-0.61-0.25c-0.13,0-0.25,0.03-0.36,0.08c-0.11,0.05-0.2,0.12-0.29,0.21
			c-0.08,0.09-0.15,0.2-0.19,0.32c-0.05,0.12-0.07,0.26-0.07,0.41v1.85h-0.48v-3.24h0.48v0.55c0.05-0.08,0.11-0.16,0.18-0.23
			c0.06-0.08,0.14-0.14,0.22-0.2s0.18-0.1,0.28-0.13s0.23-0.05,0.36-0.05c0.26,0,0.48,0.06,0.65,0.19s0.3,0.28,0.39,0.46
			C69.09,52.07,69.16,51.99,69.23,51.91z"/>
		<path class="st12" d="M78.94,53.92c-0.09,0.21-0.2,0.39-0.35,0.53c-0.14,0.14-0.31,0.25-0.5,0.33s-0.38,0.12-0.57,0.12
			c-0.15,0-0.29-0.02-0.41-0.06c-0.13-0.04-0.24-0.09-0.34-0.15c-0.1-0.06-0.19-0.14-0.27-0.22c-0.08-0.08-0.15-0.17-0.22-0.26v1.62
			h-0.48v-4.25h0.48v0.65c0.07-0.1,0.14-0.19,0.22-0.28c0.08-0.09,0.17-0.16,0.27-0.23c0.1-0.06,0.21-0.12,0.34-0.16
			c0.12-0.04,0.26-0.06,0.41-0.06c0.19,0,0.38,0.04,0.57,0.11c0.19,0.08,0.35,0.19,0.5,0.33c0.15,0.14,0.26,0.32,0.35,0.53
			s0.13,0.45,0.13,0.71S79.02,53.71,78.94,53.92z M78.48,52.69c-0.06-0.15-0.14-0.29-0.25-0.4s-0.23-0.19-0.36-0.25
			c-0.14-0.06-0.28-0.09-0.44-0.09c-0.15,0-0.3,0.03-0.44,0.09s-0.27,0.14-0.38,0.25c-0.11,0.11-0.2,0.24-0.26,0.39
			s-0.1,0.32-0.1,0.51s0.03,0.36,0.1,0.51s0.15,0.29,0.26,0.4s0.24,0.19,0.38,0.25c0.14,0.06,0.29,0.09,0.44,0.09
			c0.15,0,0.3-0.03,0.44-0.08c0.14-0.06,0.26-0.14,0.36-0.24c0.1-0.11,0.18-0.24,0.24-0.39c0.06-0.16,0.09-0.33,0.09-0.53
			C78.57,53.01,78.54,52.84,78.48,52.69z"/>
		<path class="st12" d="M86.38,53.86c-0.09,0.21-0.2,0.39-0.35,0.54c-0.15,0.16-0.33,0.28-0.54,0.37s-0.43,0.13-0.68,0.13
			c-0.24,0-0.47-0.04-0.67-0.13c-0.2-0.09-0.38-0.21-0.53-0.36c-0.15-0.15-0.27-0.33-0.35-0.54c-0.08-0.21-0.12-0.42-0.12-0.65
			c0-0.23,0.04-0.45,0.12-0.66c0.08-0.21,0.2-0.39,0.35-0.54c0.15-0.15,0.33-0.28,0.54-0.37c0.21-0.09,0.43-0.14,0.68-0.14
			c0.24,0,0.47,0.05,0.67,0.14s0.39,0.21,0.54,0.36s0.27,0.33,0.35,0.54s0.13,0.42,0.13,0.65C86.51,53.43,86.46,53.65,86.38,53.86z
			 M85.92,52.71c-0.06-0.15-0.15-0.29-0.25-0.4c-0.11-0.11-0.24-0.21-0.38-0.27c-0.15-0.07-0.31-0.1-0.48-0.1
			c-0.18,0-0.34,0.03-0.48,0.1c-0.15,0.07-0.27,0.16-0.37,0.27s-0.18,0.25-0.24,0.4s-0.09,0.32-0.09,0.49
			c0,0.17,0.03,0.34,0.09,0.49s0.14,0.29,0.25,0.4c0.11,0.11,0.23,0.2,0.38,0.27s0.31,0.1,0.48,0.1c0.18,0,0.34-0.03,0.48-0.1
			c0.15-0.06,0.27-0.15,0.38-0.27c0.1-0.11,0.19-0.25,0.24-0.4s0.09-0.32,0.09-0.49C86.01,53.03,85.98,52.87,85.92,52.71z"/>
		<path class="st12" d="M93.83,54.18l0.85-2.6h0.5l-1.14,3.27h-0.42l-0.87-2.56l-0.88,2.56h-0.43l-1.14-3.27h0.51l0.85,2.6
			l0.87-2.62h0.4L93.83,54.18z"/>
		<path class="st12" d="M99.62,53.85c0.07,0.14,0.15,0.25,0.26,0.35c0.1,0.09,0.22,0.17,0.35,0.21c0.13,0.05,0.27,0.07,0.41,0.07
			c0.23,0,0.42-0.04,0.58-0.13c0.16-0.08,0.31-0.19,0.44-0.33l0.3,0.27c-0.16,0.18-0.35,0.33-0.56,0.44s-0.47,0.17-0.78,0.17
			c-0.22,0-0.43-0.04-0.63-0.12c-0.2-0.08-0.37-0.2-0.52-0.34c-0.15-0.15-0.26-0.33-0.35-0.54S99,53.46,99,53.21
			c0-0.23,0.04-0.45,0.12-0.66s0.19-0.39,0.32-0.54c0.14-0.15,0.3-0.27,0.49-0.36c0.19-0.09,0.4-0.13,0.62-0.13
			c0.24,0,0.45,0.05,0.64,0.14c0.19,0.09,0.35,0.21,0.48,0.37c0.13,0.16,0.23,0.34,0.29,0.55s0.1,0.43,0.1,0.67
			c0,0.02,0,0.04,0,0.07c0,0.02,0,0.05-0.01,0.08h-2.56C99.51,53.56,99.55,53.71,99.62,53.85z M101.57,53.02
			c-0.01-0.15-0.04-0.29-0.09-0.42s-0.11-0.25-0.2-0.35c-0.08-0.1-0.19-0.18-0.31-0.24s-0.26-0.09-0.43-0.09
			c-0.14,0-0.27,0.03-0.39,0.08c-0.12,0.06-0.23,0.13-0.32,0.23c-0.09,0.1-0.17,0.21-0.22,0.35s-0.1,0.28-0.11,0.44H101.57z"/>
		<path class="st12" d="M106.76,54.82h-0.48v-3.24h0.48v0.85c0.06-0.13,0.13-0.26,0.22-0.37c0.09-0.11,0.19-0.21,0.3-0.29
			c0.11-0.08,0.24-0.14,0.37-0.19s0.28-0.06,0.43-0.06v0.52h-0.04c-0.18,0-0.34,0.03-0.5,0.09c-0.16,0.06-0.29,0.16-0.41,0.28
			c-0.12,0.12-0.21,0.28-0.28,0.47c-0.07,0.19-0.1,0.4-0.1,0.64V54.82z"/>
		<path class="st12" d="M117.64,55.63v-5.81h0.41v5.81H117.64z"/>
		<path class="st12" d="M128.57,50.43v4.39h-0.5v-4.39H128.57z"/>
		<path class="st12" d="M133.62,54.82h-0.48v-3.24h0.48v0.56c0.11-0.18,0.25-0.33,0.43-0.45c0.18-0.12,0.4-0.19,0.68-0.19
			c0.2,0,0.37,0.03,0.52,0.09c0.15,0.06,0.28,0.15,0.39,0.27c0.11,0.12,0.19,0.25,0.24,0.41c0.06,0.16,0.08,0.33,0.08,0.53v2.01
			h-0.48v-1.89c0-0.3-0.08-0.54-0.23-0.71c-0.15-0.18-0.38-0.26-0.66-0.26c-0.14,0-0.27,0.02-0.39,0.07s-0.22,0.12-0.31,0.21
			c-0.09,0.09-0.16,0.2-0.2,0.32c-0.05,0.13-0.07,0.26-0.07,0.41V54.82z"/>
		<path class="st12" d="M140.86,54.82h-0.48v-3.24h0.48v0.56c0.11-0.18,0.25-0.33,0.43-0.45c0.18-0.12,0.4-0.19,0.68-0.19
			c0.2,0,0.37,0.03,0.52,0.09c0.15,0.06,0.28,0.15,0.39,0.27c0.11,0.12,0.19,0.25,0.24,0.41c0.06,0.16,0.08,0.33,0.08,0.53v2.01
			h-0.48v-1.89c0-0.3-0.08-0.54-0.23-0.71c-0.15-0.18-0.38-0.26-0.66-0.26c-0.14,0-0.27,0.02-0.39,0.07s-0.22,0.12-0.31,0.21
			c-0.09,0.09-0.16,0.2-0.2,0.32c-0.05,0.13-0.07,0.26-0.07,0.41V54.82z"/>
		<path class="st12" d="M150.65,53.86c-0.09,0.21-0.2,0.39-0.35,0.54c-0.15,0.16-0.33,0.28-0.54,0.37s-0.43,0.13-0.68,0.13
			c-0.24,0-0.47-0.04-0.67-0.13c-0.2-0.09-0.38-0.21-0.53-0.36c-0.15-0.15-0.27-0.33-0.35-0.54c-0.08-0.21-0.12-0.42-0.12-0.65
			c0-0.23,0.04-0.45,0.12-0.66c0.08-0.21,0.2-0.39,0.35-0.54c0.15-0.15,0.33-0.28,0.54-0.37c0.21-0.09,0.43-0.14,0.68-0.14
			c0.24,0,0.47,0.05,0.67,0.14s0.39,0.21,0.54,0.36s0.27,0.33,0.35,0.54s0.13,0.42,0.13,0.65
			C150.78,53.43,150.74,53.65,150.65,53.86z M150.2,52.71c-0.06-0.15-0.15-0.29-0.25-0.4c-0.11-0.11-0.24-0.21-0.38-0.27
			c-0.15-0.07-0.31-0.1-0.48-0.1c-0.18,0-0.34,0.03-0.48,0.1c-0.15,0.07-0.27,0.16-0.37,0.27s-0.18,0.25-0.24,0.4
			s-0.09,0.32-0.09,0.49c0,0.17,0.03,0.34,0.09,0.49s0.14,0.29,0.25,0.4c0.11,0.11,0.23,0.2,0.38,0.27s0.31,0.1,0.48,0.1
			c0.18,0,0.34-0.03,0.48-0.1c0.15-0.06,0.27-0.15,0.38-0.27c0.1-0.11,0.19-0.25,0.24-0.4s0.09-0.32,0.09-0.49
			C150.29,53.03,150.26,52.87,150.2,52.71z"/>
		<path class="st12" d="M157.23,51.58h0.52l-1.41,3.27h-0.43l-1.4-3.27h0.53l1.09,2.69L157.23,51.58z"/>
		<path class="st12" d="M162.37,52.03c-0.16,0.04-0.31,0.1-0.46,0.17l-0.14-0.4c0.18-0.08,0.36-0.15,0.55-0.2
			c0.18-0.05,0.4-0.07,0.63-0.07c0.44,0,0.78,0.11,1.02,0.33c0.24,0.22,0.36,0.54,0.36,0.98v1.98h-0.46v-0.49
			c-0.11,0.15-0.26,0.28-0.45,0.39c-0.19,0.11-0.43,0.17-0.72,0.17c-0.15,0-0.3-0.02-0.44-0.06c-0.14-0.04-0.27-0.11-0.39-0.19
			c-0.12-0.09-0.21-0.19-0.28-0.32c-0.07-0.12-0.1-0.27-0.1-0.45c0-0.17,0.03-0.32,0.1-0.45s0.16-0.24,0.29-0.33
			c0.12-0.09,0.27-0.16,0.44-0.2c0.17-0.05,0.36-0.07,0.56-0.07c0.21,0,0.39,0.01,0.55,0.04s0.31,0.06,0.45,0.1v-0.11
			c0-0.29-0.08-0.51-0.25-0.66s-0.41-0.22-0.71-0.22C162.71,51.96,162.53,51.99,162.37,52.03z M162.22,53.36
			c-0.16,0.12-0.24,0.29-0.24,0.5c0,0.1,0.02,0.2,0.07,0.28c0.04,0.08,0.1,0.15,0.18,0.2c0.08,0.06,0.16,0.1,0.26,0.13
			c0.1,0.03,0.2,0.04,0.31,0.04c0.15,0,0.29-0.02,0.42-0.07c0.13-0.04,0.25-0.1,0.34-0.18c0.1-0.08,0.18-0.17,0.23-0.28
			s0.08-0.22,0.08-0.35v-0.31c-0.12-0.03-0.26-0.06-0.42-0.09s-0.33-0.04-0.53-0.04C162.62,53.18,162.38,53.24,162.22,53.36z"/>
		<path class="st12" d="M169.34,53.9c0,0.2,0.05,0.34,0.15,0.42c0.1,0.08,0.23,0.12,0.4,0.12c0.08,0,0.16-0.01,0.24-0.02
			s0.15-0.05,0.24-0.09v0.41c-0.08,0.05-0.17,0.08-0.27,0.1c-0.09,0.02-0.2,0.04-0.32,0.04c-0.13,0-0.25-0.02-0.36-0.05
			c-0.11-0.03-0.21-0.09-0.29-0.16s-0.15-0.17-0.19-0.29c-0.05-0.12-0.07-0.26-0.07-0.42v-1.96h-0.45v-0.43h0.45V50.6h0.48v0.98
			h1.03v0.43h-1.03V53.9z"/>
		<path class="st12" d="M174.92,53.85c0.07,0.14,0.15,0.25,0.26,0.35c0.1,0.09,0.22,0.17,0.35,0.21c0.13,0.05,0.27,0.07,0.41,0.07
			c0.23,0,0.42-0.04,0.58-0.13c0.16-0.08,0.31-0.19,0.44-0.33l0.3,0.27c-0.16,0.18-0.35,0.33-0.56,0.44s-0.47,0.17-0.78,0.17
			c-0.22,0-0.43-0.04-0.63-0.12c-0.2-0.08-0.37-0.2-0.52-0.34c-0.15-0.15-0.26-0.33-0.35-0.54s-0.13-0.44-0.13-0.69
			c0-0.23,0.04-0.45,0.12-0.66s0.19-0.39,0.32-0.54c0.14-0.15,0.3-0.27,0.49-0.36c0.19-0.09,0.4-0.13,0.62-0.13
			c0.24,0,0.45,0.05,0.64,0.14c0.19,0.09,0.35,0.21,0.48,0.37c0.13,0.16,0.23,0.34,0.29,0.55s0.1,0.43,0.1,0.67
			c0,0.02,0,0.04,0,0.07c0,0.02,0,0.05-0.01,0.08h-2.56C174.81,53.56,174.85,53.71,174.92,53.85z M176.87,53.02
			c-0.01-0.15-0.04-0.29-0.09-0.42s-0.11-0.25-0.2-0.35c-0.08-0.1-0.19-0.18-0.31-0.24s-0.26-0.09-0.43-0.09
			c-0.14,0-0.27,0.03-0.39,0.08c-0.12,0.06-0.23,0.13-0.32,0.23c-0.09,0.1-0.17,0.21-0.22,0.35s-0.1,0.28-0.11,0.44H176.87z"/>
		<path class="st12" d="M187.03,55.63v-5.81h0.41v5.81H187.03z"/>
		<path class="st12" d="M200.57,52.46c-0.09,0.18-0.22,0.33-0.37,0.45c-0.16,0.12-0.34,0.21-0.55,0.27
			c-0.21,0.06-0.43,0.09-0.67,0.09h-1.07v1.55h-0.5v-4.39h1.64c0.25,0,0.47,0.03,0.67,0.1c0.2,0.06,0.38,0.16,0.52,0.28
			c0.14,0.12,0.25,0.27,0.33,0.44c0.08,0.17,0.12,0.37,0.12,0.59C200.71,52.07,200.67,52.28,200.57,52.46z M199.89,51.13
			c-0.22-0.16-0.5-0.24-0.86-0.24h-1.11v1.93h1.09c0.18,0,0.34-0.02,0.49-0.07c0.15-0.05,0.28-0.11,0.38-0.2
			c0.11-0.09,0.19-0.19,0.25-0.31s0.08-0.25,0.08-0.4C200.22,51.53,200.11,51.29,199.89,51.13z"/>
		<path class="st12" d="M205.38,54.82h-0.48v-3.24h0.48v0.85c0.06-0.13,0.13-0.26,0.22-0.37c0.09-0.11,0.19-0.21,0.3-0.29
			c0.11-0.08,0.24-0.14,0.37-0.19s0.28-0.06,0.43-0.06v0.52h-0.04c-0.18,0-0.34,0.03-0.5,0.09c-0.16,0.06-0.29,0.16-0.41,0.28
			c-0.12,0.12-0.21,0.28-0.28,0.47c-0.07,0.19-0.1,0.4-0.1,0.64V54.82z"/>
		<path class="st12" d="M213.72,53.86c-0.09,0.21-0.2,0.39-0.35,0.54c-0.15,0.16-0.33,0.28-0.54,0.37s-0.43,0.13-0.68,0.13
			c-0.24,0-0.47-0.04-0.67-0.13c-0.2-0.09-0.38-0.21-0.53-0.36c-0.15-0.15-0.27-0.33-0.35-0.54c-0.08-0.21-0.12-0.42-0.12-0.65
			c0-0.23,0.04-0.45,0.12-0.66c0.08-0.21,0.2-0.39,0.35-0.54c0.15-0.15,0.33-0.28,0.54-0.37c0.21-0.09,0.43-0.14,0.68-0.14
			c0.24,0,0.47,0.05,0.67,0.14s0.39,0.21,0.54,0.36s0.27,0.33,0.35,0.54s0.13,0.42,0.13,0.65
			C213.85,53.43,213.81,53.65,213.72,53.86z M213.26,52.71c-0.06-0.15-0.15-0.29-0.25-0.4c-0.11-0.11-0.24-0.21-0.38-0.27
			c-0.15-0.07-0.31-0.1-0.48-0.1c-0.18,0-0.34,0.03-0.48,0.1c-0.15,0.07-0.27,0.16-0.37,0.27s-0.18,0.25-0.24,0.4
			s-0.09,0.32-0.09,0.49c0,0.17,0.03,0.34,0.09,0.49s0.14,0.29,0.25,0.4c0.11,0.11,0.23,0.2,0.38,0.27s0.31,0.1,0.48,0.1
			c0.18,0,0.34-0.03,0.48-0.1c0.15-0.06,0.27-0.15,0.38-0.27c0.1-0.11,0.19-0.25,0.24-0.4s0.09-0.32,0.09-0.49
			C213.35,53.03,213.32,52.87,213.26,52.71z"/>
		<path class="st12" d="M221.23,53.92c-0.09,0.21-0.2,0.39-0.35,0.53c-0.14,0.14-0.31,0.25-0.5,0.33s-0.38,0.12-0.57,0.12
			c-0.15,0-0.29-0.02-0.41-0.06c-0.13-0.04-0.24-0.09-0.34-0.15c-0.1-0.06-0.19-0.14-0.27-0.22c-0.08-0.08-0.15-0.17-0.22-0.26v1.62
			h-0.48v-4.25h0.48v0.65c0.07-0.1,0.14-0.19,0.22-0.28c0.08-0.09,0.17-0.16,0.27-0.23c0.1-0.06,0.21-0.12,0.34-0.16
			c0.12-0.04,0.26-0.06,0.41-0.06c0.19,0,0.38,0.04,0.57,0.11c0.19,0.08,0.35,0.19,0.5,0.33c0.15,0.14,0.26,0.32,0.35,0.53
			s0.13,0.45,0.13,0.71S221.32,53.71,221.23,53.92z M220.78,52.69c-0.06-0.15-0.14-0.29-0.25-0.4s-0.23-0.19-0.36-0.25
			c-0.14-0.06-0.28-0.09-0.44-0.09c-0.15,0-0.3,0.03-0.44,0.09s-0.27,0.14-0.38,0.25c-0.11,0.11-0.2,0.24-0.26,0.39
			s-0.1,0.32-0.1,0.51s0.03,0.36,0.1,0.51s0.15,0.29,0.26,0.4s0.24,0.19,0.38,0.25c0.14,0.06,0.29,0.09,0.44,0.09
			c0.15,0,0.3-0.03,0.44-0.08c0.14-0.06,0.26-0.14,0.36-0.24c0.1-0.11,0.18-0.24,0.24-0.39c0.06-0.16,0.09-0.33,0.09-0.53
			C220.87,53.01,220.84,52.84,220.78,52.69z"/>
		<path class="st12" d="M226.04,53.85c0.07,0.14,0.15,0.25,0.26,0.35c0.1,0.09,0.22,0.17,0.35,0.21c0.13,0.05,0.27,0.07,0.41,0.07
			c0.23,0,0.42-0.04,0.58-0.13c0.16-0.08,0.31-0.19,0.44-0.33l0.3,0.27c-0.16,0.18-0.35,0.33-0.56,0.44s-0.47,0.17-0.78,0.17
			c-0.22,0-0.43-0.04-0.63-0.12c-0.2-0.08-0.37-0.2-0.52-0.34c-0.15-0.15-0.26-0.33-0.35-0.54s-0.13-0.44-0.13-0.69
			c0-0.23,0.04-0.45,0.12-0.66s0.19-0.39,0.32-0.54c0.14-0.15,0.3-0.27,0.49-0.36c0.19-0.09,0.4-0.13,0.62-0.13
			c0.24,0,0.45,0.05,0.64,0.14c0.19,0.09,0.35,0.21,0.48,0.37c0.13,0.16,0.23,0.34,0.29,0.55s0.1,0.43,0.1,0.67
			c0,0.02,0,0.04,0,0.07c0,0.02,0,0.05-0.01,0.08h-2.56C225.93,53.56,225.97,53.71,226.04,53.85z M227.99,53.02
			c-0.01-0.15-0.04-0.29-0.09-0.42s-0.11-0.25-0.2-0.35c-0.08-0.1-0.19-0.18-0.31-0.24s-0.26-0.09-0.43-0.09
			c-0.14,0-0.27,0.03-0.39,0.08c-0.12,0.06-0.23,0.13-0.32,0.23c-0.09,0.1-0.17,0.21-0.22,0.35s-0.1,0.28-0.11,0.44H227.99z"/>
		<path class="st12" d="M232.74,54.82v-4.58h0.48v4.58H232.74z"/>
	</g>
</g>
</svg>
